<?xml version="1.0" encoding="utf-8"?>
<!-- Generator: Adobe Illustrator 24.0.0, SVG Export Plug-In . SVG Version: 6.00 Build 0)  -->
<svg version="1.1" xmlns="http://www.w3.org/2000/svg" xmlns:xlink="http://www.w3.org/1999/xlink" x="0px" y="0px"
	 viewBox="0 0 906.1 254" style="enable-background:new 0 0 906.1 254;" xml:space="preserve">
<style type="text/css">
	.st0{fill:#00539F;}
	.st1{fill:#FFFFFF;}
</style>
<g id="Capa_2">
</g>
<g id="Capa_1">
	<g>
		<g>
			<path class="st1" d="M87.2,245.2l-0.7,2.1c-1.7-0.2-2.8-0.9-3.3-2.6c-1.2,1.8-3,2.6-5.1,2.6c-3.4,0-5.4-2.1-5.4-5.3
				c0-3.7,2.7-5.8,7.5-5.8h2.6v-1.3c0-2.5-1.2-3.4-3.6-3.4c-1.3,0-2.8,0.3-4.6,0.9l-0.7-2.2c2.1-0.8,4-1.2,5.9-1.2
				c4.1,0,6,2.1,6,5.8v8C85.7,244.4,86.3,244.9,87.2,245.2z M82.8,242.4v-4h-2.2c-3.1,0-4.7,1.2-4.7,3.6c0,2,1,3.1,2.9,3.1
				C80.5,245.1,81.8,244.2,82.8,242.4z"/>
			<path class="st1" d="M100.9,229.3l-0.5,3c-0.5-0.1-0.9-0.2-1.5-0.2c-2.1,0-3.4,1.6-4.1,4.9v9.9h-3v-17.4h2.6l0.3,3.5
				c0.9-2.6,2.5-3.9,4.6-3.9C99.8,229.1,100.4,229.2,100.9,229.3z"/>
			<path class="st1" d="M112.9,246.2c-1.1,0.8-2.4,1.2-3.8,1.2c-2.9,0-4.6-1.7-4.6-5v-10.5h-3v-2.3h3v-3.9l3-0.4v4.3h4l-0.3,2.3
				h-3.7v10.4c0,1.8,0.5,2.6,2,2.6c0.7,0,1.4-0.2,2.3-0.7L112.9,246.2z"/>
			<path class="st1" d="M121.4,223l-6.9,2.8l-0.9-1.6l6.4-3.8L121.4,223z M119,247h-3v-17.4h3V247z"/>
			<path class="st1" d="M136.5,231l-1.4,1.9c-1.2-0.9-2.2-1.3-3.7-1.3c-2.7,0-4.4,2.1-4.4,6.7c0,4.6,1.7,6.4,4.4,6.4
				c1.4,0,2.4-0.5,3.7-1.3l1.4,2c-1.5,1.3-3.2,1.9-5.2,1.9c-4.6,0-7.4-3.3-7.4-9c0-5.6,2.8-9.3,7.4-9.3
				C133.3,229.1,135,229.7,136.5,231z"/>
			<path class="st1" d="M152.9,247h-2.6l-0.2-2.7c-1.3,2.1-2.9,3.1-5.3,3.1c-3,0-4.8-1.9-4.8-5.3v-12.5h3v12.2
				c0,2.4,0.8,3.3,2.6,3.3c1.8,0,3.2-1.3,4.3-3v-12.4h3V247z"/>
			<path class="st1" d="M158.9,243.5v-21l3-0.4v21.3c0,0.9,0.3,1.4,1.1,1.4c0.4,0,0.8-0.1,1.1-0.2l0.8,2.1c-0.6,0.4-1.5,0.6-2.4,0.6
				C160.3,247.4,158.9,246,158.9,243.5z"/>
			<path class="st1" d="M182.4,238.2c0,5.4-2.8,9.1-7.6,9.1c-4.9,0-7.6-3.6-7.6-9.1c0-5.4,2.8-9.1,7.6-9.1S182.4,232.7,182.4,238.2z
				 M170.4,238.3c0,4.5,1.6,6.6,4.4,6.6s4.4-2.1,4.4-6.7c0-4.5-1.6-6.6-4.4-6.6C171.9,231.6,170.4,233.7,170.4,238.3z"/>
			<path class="st1" d="M197.7,231.1l-1.3,1.9c-1.5-1-2.8-1.5-4.4-1.5c-1.9,0-3.1,0.9-3.1,2.3c0,1.4,0.9,2.1,3.7,2.8
				c3.6,0.9,5.7,2.4,5.7,5.4c0,3.6-3.3,5.3-6.7,5.3c-2.9,0-4.9-1-6.4-2.3l1.6-1.9c1.4,1.1,2.9,1.7,4.8,1.7c2.2,0,3.7-1,3.7-2.6
				c0-1.7-0.8-2.4-4.1-3.3c-3.7-1-5.1-2.6-5.1-5.1c0-2.8,2.6-4.8,6.1-4.8C194.3,229.1,196.1,229.9,197.7,231.1z"/>
			<path class="st1" d="M224.1,222.5V247h-2.6l-0.3-2.4c-1.1,1.8-2.8,2.8-4.9,2.8c-4.1,0-6.4-3.6-6.4-9c0-5.3,2.5-9.2,6.7-9.2
				c2,0,3.5,0.9,4.6,2.1v-9.1L224.1,222.5z M221.2,242.4v-8.5c-1.1-1.4-2.3-2.3-3.9-2.3c-2.6,0-4.1,2.2-4.1,6.7
				c0,4.6,1.4,6.7,3.9,6.7C218.9,244.9,220,244,221.2,242.4z"/>
			<path class="st1" d="M243.1,239.3h-10.9c0.3,4,2.1,5.6,4.6,5.6c1.7,0,2.9-0.5,4.4-1.5l1.3,1.8c-1.7,1.4-3.6,2.2-5.9,2.2
				c-4.8,0-7.5-3.4-7.5-8.9c0-5.4,2.7-9.3,7.1-9.3c4.6,0,7,3.3,7,8.6C243.1,238.3,243.1,238.9,243.1,239.3z M240.2,236.8
				c0-3.4-1.3-5.3-4-5.3c-2.3,0-3.8,1.6-4,5.5h8V236.8z"/>
			<path class="st1" d="M258.3,231.1l-1.3,1.9c-1.5-1-2.8-1.5-4.4-1.5c-1.9,0-3.1,0.9-3.1,2.3c0,1.4,0.9,2.1,3.7,2.8
				c3.6,0.9,5.7,2.4,5.7,5.4c0,3.6-3.3,5.3-6.7,5.3c-2.9,0-4.9-1-6.4-2.3l1.6-1.9c1.4,1.1,2.9,1.7,4.8,1.7c2.2,0,3.7-1,3.7-2.6
				c0-1.7-0.8-2.4-4.1-3.3c-3.7-1-5.1-2.6-5.1-5.1c0-2.8,2.6-4.8,6.1-4.8C254.9,229.1,256.7,229.9,258.3,231.1z"/>
			<path class="st1" d="M275.8,239.3h-10.9c0.3,4,2.1,5.6,4.6,5.6c1.7,0,2.9-0.5,4.4-1.5l1.3,1.8c-1.7,1.4-3.6,2.2-5.9,2.2
				c-4.8,0-7.5-3.4-7.5-8.9c0-5.4,2.7-9.3,7.1-9.3c4.6,0,7,3.3,7,8.6C275.9,238.3,275.8,238.9,275.8,239.3z M272.9,236.8
				c0-3.4-1.3-5.3-4-5.3c-2.3,0-3.8,1.6-4,5.5h8V236.8z"/>
			<path class="st1" d="M292,231l-1.4,1.9c-1.2-0.9-2.2-1.3-3.7-1.3c-2.7,0-4.4,2.1-4.4,6.7c0,4.6,1.7,6.4,4.4,6.4
				c1.4,0,2.4-0.5,3.7-1.3l1.4,2c-1.5,1.3-3.2,1.9-5.2,1.9c-4.6,0-7.4-3.3-7.4-9c0-5.6,2.8-9.3,7.4-9.3
				C288.8,229.1,290.5,229.7,292,231z"/>
			<path class="st1" d="M309,234.5V247h-3v-12.1c0-2.6-1.1-3.4-2.7-3.4c-1.8,0-3.2,1.2-4.3,3V247h-3v-24.4l3-0.3v9.7
				c1.2-1.7,2.9-2.8,5-2.8C307.2,229.1,309,231.2,309,234.5z"/>
			<path class="st1" d="M327.9,245.2l-0.7,2.1c-1.7-0.2-2.8-0.9-3.3-2.6c-1.2,1.8-3,2.6-5.1,2.6c-3.4,0-5.4-2.1-5.4-5.3
				c0-3.7,2.7-5.8,7.5-5.8h2.6v-1.3c0-2.5-1.2-3.4-3.6-3.4c-1.3,0-2.8,0.3-4.6,0.9l-0.7-2.2c2.1-0.8,4-1.2,5.9-1.2
				c4.1,0,6,2.1,6,5.8v8C326.5,244.4,327.1,244.9,327.9,245.2z M323.5,242.4v-4h-2.2c-3.1,0-4.7,1.2-4.7,3.6c0,2,1,3.1,2.9,3.1
				C321.3,245.1,322.6,244.2,323.5,242.4z"/>
			<path class="st1" d="M346.8,238.2c0,5.5-2.6,9.1-6.7,9.1c-1.9,0-3.4-0.9-4.5-2.3l-0.3,1.9h-2.6v-24.4l3-0.4v9.6
				c1.2-1.6,2.7-2.6,4.8-2.6C344.3,229.1,346.8,232.4,346.8,238.2z M343.5,238.2c0-5-1.6-6.7-4-6.7c-1.9,0-3.1,1.3-4,2.7v8.3
				c0.9,1.4,2.2,2.3,3.8,2.3C341.8,244.9,343.5,243,343.5,238.2z"/>
			<path class="st1" d="M351.7,243.5v-21l3-0.4v21.3c0,0.9,0.3,1.4,1.1,1.4c0.4,0,0.8-0.1,1.1-0.2l0.8,2.1c-0.6,0.4-1.5,0.6-2.4,0.6
				C353.1,247.4,351.7,246,351.7,243.5z"/>
			<path class="st1" d="M373.9,239.3h-10.9c0.3,4,2.1,5.6,4.6,5.6c1.7,0,2.9-0.5,4.4-1.5l1.3,1.8c-1.7,1.4-3.6,2.2-5.9,2.2
				c-4.8,0-7.5-3.4-7.5-8.9c0-5.4,2.7-9.3,7.1-9.3c4.6,0,7,3.3,7,8.6C374,238.3,374,238.9,373.9,239.3z M371.1,236.8
				c0-3.4-1.3-5.3-4-5.3c-2.3,0-3.8,1.6-4,5.5h8V236.8z"/>
			<path class="st1" d="M389.2,231.1l-1.3,1.9c-1.5-1-2.8-1.5-4.4-1.5c-1.9,0-3.1,0.9-3.1,2.3c0,1.4,0.9,2.1,3.7,2.8
				c3.6,0.9,5.7,2.4,5.7,5.4c0,3.6-3.3,5.3-6.7,5.3c-2.9,0-4.9-1-6.4-2.3l1.6-1.9c1.4,1.1,2.9,1.7,4.8,1.7c2.2,0,3.7-1,3.7-2.6
				c0-1.7-0.8-2.4-4.1-3.3c-3.7-1-5.1-2.6-5.1-5.1c0-2.8,2.6-4.8,6.1-4.8C385.8,229.1,387.6,229.9,389.2,231.1z"/>
			<path class="st1" d="M416.6,238.2c0,5.3-2.3,9.1-6.7,9.1c-1.8,0-3.4-0.6-4.5-2v8.3l-3,0.4v-24.5h2.6l0.2,2.3
				c1.3-1.8,3.1-2.7,5-2.7C414.8,229.1,416.6,232.7,416.6,238.2z M413.4,238.2c0-4.5-1.3-6.7-3.8-6.7c-1.8,0-3.2,1.3-4.1,2.7v8.5
				c0.9,1.4,2.2,2.1,3.8,2.1C411.9,244.9,413.4,242.8,413.4,238.2z"/>
			<path class="st1" d="M434.2,245.2l-0.7,2.1c-1.7-0.2-2.8-0.9-3.3-2.6c-1.2,1.8-3,2.6-5.1,2.6c-3.4,0-5.4-2.1-5.4-5.3
				c0-3.7,2.7-5.8,7.5-5.8h2.6v-1.3c0-2.5-1.2-3.4-3.6-3.4c-1.3,0-2.8,0.3-4.6,0.9l-0.7-2.2c2.1-0.8,4-1.2,5.9-1.2
				c4.1,0,6,2.1,6,5.8v8C432.8,244.4,433.3,244.9,434.2,245.2z M429.8,242.4v-4h-2.2c-3.1,0-4.7,1.2-4.7,3.6c0,2,1,3.1,2.9,3.1
				C427.6,245.1,428.9,244.2,429.8,242.4z"/>
			<path class="st1" d="M448,229.3l-0.5,3c-0.5-0.1-0.9-0.2-1.5-0.2c-2.1,0-3.4,1.6-4.1,4.9v9.9h-3v-17.4h2.6l0.3,3.5
				c0.9-2.6,2.5-3.9,4.6-3.9C446.9,229.1,447.5,229.2,448,229.3z"/>
			<path class="st1" d="M463.2,245.2l-0.7,2.1c-1.7-0.2-2.8-0.9-3.3-2.6c-1.2,1.8-3,2.6-5.1,2.6c-3.4,0-5.4-2.1-5.4-5.3
				c0-3.7,2.7-5.8,7.5-5.8h2.6v-1.3c0-2.5-1.2-3.4-3.6-3.4c-1.3,0-2.8,0.3-4.6,0.9l-0.7-2.2c2.1-0.8,4-1.2,5.9-1.2
				c4.1,0,6,2.1,6,5.8v8C461.7,244.4,462.3,244.9,463.2,245.2z M458.8,242.4v-4h-2.2c-3.1,0-4.7,1.2-4.7,3.6c0,2,1,3.1,2.9,3.1
				C456.5,245.1,457.8,244.2,458.8,242.4z"/>
			<path class="st1" d="M489.3,245.2l-0.7,2.1c-1.7-0.2-2.8-0.9-3.3-2.6c-1.2,1.8-3,2.6-5.1,2.6c-3.4,0-5.4-2.1-5.4-5.3
				c0-3.7,2.7-5.8,7.5-5.8h2.6v-1.3c0-2.5-1.2-3.4-3.6-3.4c-1.3,0-2.8,0.3-4.6,0.9l-0.7-2.2c2.1-0.8,4-1.2,5.9-1.2
				c4.1,0,6,2.1,6,5.8v8C487.9,244.4,488.4,244.9,489.3,245.2z M484.9,242.4v-4h-2.2c-3.1,0-4.7,1.2-4.7,3.6c0,2,1,3.1,2.9,3.1
				C482.7,245.1,484,244.2,484.9,242.4z"/>
			<path class="st1" d="M493.5,243.5v-21l3-0.4v21.3c0,0.9,0.3,1.4,1.1,1.4c0.4,0,0.8-0.1,1.1-0.2l0.8,2.1c-0.6,0.4-1.5,0.6-2.4,0.6
				C494.9,247.4,493.5,246,493.5,243.5z"/>
			<path class="st1" d="M506.7,223.3c0,1.2-0.8,2-2.1,2c-1.2,0-2.1-0.9-2.1-2c0-1.2,0.8-2.1,2.1-2.1
				C505.9,221.2,506.7,222.1,506.7,223.3z M506.1,247h-3v-17.4h3V247z"/>
			<path class="st1" d="M534,234.5V247h-3v-12.1c0-2.6-1.1-3.4-2.4-3.4c-1.8,0-2.8,1.2-4,3.1V247h-3v-12.1c0-2.6-1.1-3.4-2.4-3.4
				c-1.8,0-2.9,1.2-4,3.1V247h-3v-17.4h2.6l0.3,2.5c1.1-1.8,2.7-2.9,4.9-2.9c2.1,0,3.7,1.2,4.3,3.1c1.2-1.9,2.8-3.1,5.1-3.1
				C532.2,229.1,534,231.2,534,234.5z"/>
			<path class="st1" d="M552.8,239.3h-10.9c0.3,4,2.1,5.6,4.6,5.6c1.7,0,2.9-0.5,4.4-1.5l1.3,1.8c-1.7,1.4-3.6,2.2-5.9,2.2
				c-4.8,0-7.5-3.4-7.5-8.9c0-5.4,2.7-9.3,7.1-9.3c4.6,0,7,3.3,7,8.6C552.9,238.3,552.8,238.9,552.8,239.3z M549.9,236.8
				c0-3.4-1.3-5.3-4-5.3c-2.3,0-3.8,1.6-4,5.5h8V236.8z"/>
			<path class="st1" d="M570.6,234.5V247h-3v-12.1c0-2.6-1-3.4-2.7-3.4c-1.9,0-3.2,1.2-4.3,3.1V247h-3v-17.4h2.6l0.3,2.6
				c1.2-1.8,3-3,5.2-3C568.8,229.1,570.6,231.2,570.6,234.5z"/>
			<path class="st1" d="M585.2,246.2c-1.1,0.8-2.4,1.2-3.8,1.2c-2.9,0-4.6-1.7-4.6-5v-10.5h-3v-2.3h3v-3.9l3-0.4v4.3h4l-0.3,2.3
				h-3.7v10.4c0,1.8,0.5,2.6,2,2.6c0.7,0,1.4-0.2,2.3-0.7L585.2,246.2z"/>
			<path class="st1" d="M601.7,238.2c0,5.4-2.8,9.1-7.6,9.1c-4.8,0-7.6-3.6-7.6-9.1c0-5.4,2.8-9.1,7.6-9.1S601.7,232.7,601.7,238.2z
				 M589.7,238.3c0,4.5,1.6,6.6,4.4,6.6s4.4-2.1,4.4-6.7c0-4.5-1.6-6.6-4.4-6.6C591.3,231.6,589.7,233.7,589.7,238.3z"/>
			<path class="st1" d="M617,231.1l-1.3,1.9c-1.5-1-2.8-1.5-4.4-1.5c-1.9,0-3.1,0.9-3.1,2.3c0,1.4,0.9,2.1,3.7,2.8
				c3.6,0.9,5.7,2.4,5.7,5.4c0,3.6-3.3,5.3-6.7,5.3c-2.9,0-4.9-1-6.4-2.3l1.6-1.9c1.4,1.1,2.9,1.7,4.8,1.7c2.2,0,3.7-1,3.7-2.6
				c0-1.7-0.8-2.4-4.1-3.3c-3.7-1-5.1-2.6-5.1-5.1c0-2.8,2.6-4.8,6.1-4.8C613.7,229.1,615.4,229.9,617,231.1z"/>
		</g>
		<g>
			<g>
				<path class="st1" d="M405.1,92.3h38.1c11.6,0,20.5,0.8,26.9,2.5c6.4,1.7,11.7,5.4,16,11.2c4.3,5.8,6.5,13,6.5,21.6
					c0,8.3-1.7,15.1-5.2,20.5c-3.5,5.4-8.3,9.3-14.5,11.7c-6.2,2.4-15.7,3.6-28.5,3.6h-10.3v41.7h-29.1V92.3z M434.1,110.6v33.5h9
					c7.9,0,13.1-1.6,15.4-4.7c2.3-3.1,3.4-7.2,3.4-12.3c0-4.3-0.9-7.7-2.7-10.3c-1.8-2.6-3.8-4.3-6.2-5.1c-2.4-0.7-5.7-1.1-9.9-1.1
					H434.1z"/>
				<path class="st1" d="M524,115h24.4l31.5,90.1h-24.8l-5.5-18.6h-31.1l-5.4,18.6h-22.3L524,115z M545,171.1l-11.2-36.9l-10.7,36.9
					H545z"/>
				<path class="st1" d="M637.8,172.3l22.4,1.1c-0.8,9.8-4.6,17.7-11.4,23.9c-6.8,6.1-15.8,9.2-26.9,9.2c-13.6,0-23.9-4.1-31.1-12.3
					c-7.1-8.2-10.7-19.6-10.7-34c0-14.6,3.5-26,10.6-34.2c7.1-8.2,17.5-12.3,31.5-12.3c23,0,35.6,11.6,37.6,34.9l-22.2,1.3
					c-0.6-13.4-5.7-20.1-15.4-20.1c-5.1,0-9.1,2.2-12.1,6.5c-3,4.3-4.5,12.7-4.5,25.1c0,11.1,1.4,18.7,4.1,22.9
					c2.8,4.2,6.9,6.2,12.4,6.2C631.1,190.4,636.3,184.4,637.8,172.3z"/>
			</g>
			<g>
				<polygon class="st1" points="167.4,206.5 189.1,206.5 189.1,140 				"/>
				<polygon class="st1" points="132.2,206.5 153.5,206.5 132.2,140 				"/>
				<polygon class="st1" points="0,51.2 0,206.5 66.8,206.5 66.8,91.7 93.8,91.7 93.8,206.5 115.2,206.5 115.2,124.9 146.7,124.9 
					161.9,173.8 177.9,124.9 209.5,124.9 209.5,206.5 226.9,206.5 226.9,124.9 280.4,124.9 280.4,140.4 244.7,140.4 244.7,157.2 
					272.8,157.2 272.8,172.6 244.7,172.6 244.7,190.4 280.4,190.4 280.4,206.5 311.2,163 283.9,124.9 311.1,124.9 327.2,149.7 
					344.1,124.9 365.9,124.9 338.7,162.8 369.4,206.5 387.7,206.5 387.7,51.2 				"/>
				<polygon class="st1" points="302.5,206.5 342.4,206.5 322.5,176.9 				"/>
			</g>
		</g>
		<path class="st1" d="M852.8,0L654,53.7L706.5,248l198.8-53.7L852.8,0z M847.2,171.9l-26.3-27l-62.3,62.3l-49-49l62.9-63l-26.3-27
			h101V171.9z"/>
	</g>
</g>
</svg>
