<?xml version="1.0" encoding="utf-8"?>
<!-- Generator: Adobe Illustrator 24.0.0, SVG Export Plug-In . SVG Version: 6.00 Build 0)  -->
<svg version="1.1" id="Capa_1" xmlns="http://www.w3.org/2000/svg" xmlns:xlink="http://www.w3.org/1999/xlink" x="0px" y="0px"
	 viewBox="0 0 100 28.1" style="enable-background:new 0 0 100 28.1;" xml:space="preserve">
<style type="text/css">
	.st0{fill:#FFFFFF;}
</style>
<g>
	<g>
		<path class="st0" d="M9.5,27.1l-0.1,0.2c-0.2,0-0.3-0.1-0.4-0.3c-0.1,0.2-0.3,0.3-0.6,0.3c-0.4,0-0.6-0.2-0.6-0.6
			c0-0.4,0.3-0.6,0.8-0.6H9V26c0-0.3-0.1-0.4-0.4-0.4c-0.1,0-0.3,0-0.5,0.1l-0.1-0.2c0.2-0.1,0.4-0.1,0.7-0.1c0.5,0,0.7,0.2,0.7,0.6
			v0.9C9.4,27,9.4,27.1,9.5,27.1z M9,26.8v-0.4H8.8c-0.3,0-0.5,0.1-0.5,0.4c0,0.2,0.1,0.3,0.3,0.3C8.8,27.1,8.9,27,9,26.8z"/>
		<path class="st0" d="M11.1,25.4L11,25.7c-0.1,0-0.1,0-0.2,0c-0.2,0-0.4,0.2-0.5,0.5v1.1h-0.3v-1.9h0.3l0,0.4
			c0.1-0.3,0.3-0.4,0.5-0.4C10.9,25.3,11,25.3,11.1,25.4z"/>
		<path class="st0" d="M12.4,27.2c-0.1,0.1-0.3,0.1-0.4,0.1c-0.3,0-0.5-0.2-0.5-0.5v-1.2h-0.3v-0.3h0.3v-0.4l0.3,0v0.5h0.4l0,0.3
			h-0.4v1.1c0,0.2,0.1,0.3,0.2,0.3c0.1,0,0.2,0,0.3-0.1L12.4,27.2z"/>
		<path class="st0" d="M13.3,24.7L12.6,25l-0.1-0.2l0.7-0.4L13.3,24.7z M13.1,27.3h-0.3v-1.9h0.3V27.3z"/>
		<path class="st0" d="M15,25.5l-0.2,0.2c-0.1-0.1-0.2-0.1-0.4-0.1c-0.3,0-0.5,0.2-0.5,0.7c0,0.5,0.2,0.7,0.5,0.7
			c0.2,0,0.3-0.1,0.4-0.1l0.2,0.2c-0.2,0.1-0.4,0.2-0.6,0.2c-0.5,0-0.8-0.4-0.8-1c0-0.6,0.3-1,0.8-1C14.6,25.3,14.8,25.4,15,25.5z"
			/>
		<path class="st0" d="M16.8,27.3h-0.3l0-0.3c-0.1,0.2-0.3,0.3-0.6,0.3c-0.3,0-0.5-0.2-0.5-0.6v-1.4h0.3v1.3c0,0.3,0.1,0.4,0.3,0.4
			c0.2,0,0.4-0.1,0.5-0.3v-1.4h0.3V27.3z"/>
		<path class="st0" d="M17.5,26.9v-2.3l0.3,0v2.4c0,0.1,0,0.2,0.1,0.2c0,0,0.1,0,0.1,0l0.1,0.2c-0.1,0-0.2,0.1-0.3,0.1
			C17.6,27.4,17.5,27.2,17.5,26.9z"/>
		<path class="st0" d="M20.1,26.3c0,0.6-0.3,1-0.8,1c-0.5,0-0.8-0.4-0.8-1c0-0.6,0.3-1,0.8-1C19.8,25.3,20.1,25.7,20.1,26.3z
			 M18.7,26.3c0,0.5,0.2,0.7,0.5,0.7s0.5-0.2,0.5-0.7c0-0.5-0.2-0.7-0.5-0.7C18.9,25.6,18.7,25.8,18.7,26.3z"/>
		<path class="st0" d="M21.8,25.6l-0.1,0.2c-0.2-0.1-0.3-0.2-0.5-0.2c-0.2,0-0.3,0.1-0.3,0.3c0,0.2,0.1,0.2,0.4,0.3
			c0.4,0.1,0.6,0.3,0.6,0.6c0,0.4-0.4,0.6-0.7,0.6c-0.3,0-0.5-0.1-0.7-0.3l0.2-0.2c0.2,0.1,0.3,0.2,0.5,0.2c0.2,0,0.4-0.1,0.4-0.3
			c0-0.2-0.1-0.3-0.5-0.4c-0.4-0.1-0.6-0.3-0.6-0.6c0-0.3,0.3-0.5,0.7-0.5C21.4,25.3,21.6,25.4,21.8,25.6z"/>
		<path class="st0" d="M24.7,24.6v2.7h-0.3l0-0.3c-0.1,0.2-0.3,0.3-0.5,0.3c-0.5,0-0.7-0.4-0.7-1c0-0.6,0.3-1,0.7-1
			c0.2,0,0.4,0.1,0.5,0.2v-1L24.7,24.6z M24.4,26.8v-0.9c-0.1-0.2-0.3-0.3-0.4-0.3c-0.3,0-0.5,0.2-0.5,0.7c0,0.5,0.2,0.7,0.4,0.7
			C24.1,27.1,24.2,27,24.4,26.8z"/>
		<path class="st0" d="M26.8,26.5h-1.2c0,0.4,0.2,0.6,0.5,0.6c0.2,0,0.3-0.1,0.5-0.2l0.1,0.2c-0.2,0.1-0.4,0.2-0.7,0.2
			c-0.5,0-0.8-0.4-0.8-1c0-0.6,0.3-1,0.8-1c0.5,0,0.8,0.4,0.8,1C26.8,26.4,26.8,26.4,26.8,26.5z M26.5,26.2c0-0.4-0.1-0.6-0.4-0.6
			c-0.3,0-0.4,0.2-0.4,0.6L26.5,26.2L26.5,26.2z"/>
		<path class="st0" d="M28.5,25.6l-0.1,0.2c-0.2-0.1-0.3-0.2-0.5-0.2c-0.2,0-0.3,0.1-0.3,0.3c0,0.2,0.1,0.2,0.4,0.3
			c0.4,0.1,0.6,0.3,0.6,0.6c0,0.4-0.4,0.6-0.7,0.6c-0.3,0-0.5-0.1-0.7-0.3l0.2-0.2c0.2,0.1,0.3,0.2,0.5,0.2c0.2,0,0.4-0.1,0.4-0.3
			c0-0.2-0.1-0.3-0.5-0.4c-0.4-0.1-0.6-0.3-0.6-0.6c0-0.3,0.3-0.5,0.7-0.5C28.1,25.3,28.3,25.4,28.5,25.6z"/>
		<path class="st0" d="M30.4,26.5h-1.2c0,0.4,0.2,0.6,0.5,0.6c0.2,0,0.3-0.1,0.5-0.2l0.1,0.2c-0.2,0.1-0.4,0.2-0.7,0.2
			c-0.5,0-0.8-0.4-0.8-1c0-0.6,0.3-1,0.8-1c0.5,0,0.8,0.4,0.8,1C30.4,26.4,30.4,26.4,30.4,26.5z M30.1,26.2c0-0.4-0.1-0.6-0.4-0.6
			c-0.3,0-0.4,0.2-0.4,0.6L30.1,26.2L30.1,26.2z"/>
		<path class="st0" d="M32.2,25.5L32,25.8c-0.1-0.1-0.2-0.1-0.4-0.1c-0.3,0-0.5,0.2-0.5,0.7c0,0.5,0.2,0.7,0.5,0.7
			c0.2,0,0.3-0.1,0.4-0.1l0.2,0.2c-0.2,0.1-0.4,0.2-0.6,0.2c-0.5,0-0.8-0.4-0.8-1c0-0.6,0.3-1,0.8-1C31.8,25.3,32,25.4,32.2,25.5z"
			/>
		<path class="st0" d="M34.1,25.9v1.4h-0.3V26c0-0.3-0.1-0.4-0.3-0.4c-0.2,0-0.4,0.1-0.5,0.3v1.4h-0.3v-2.7l0.3,0v1.1
			c0.1-0.2,0.3-0.3,0.6-0.3C33.9,25.3,34.1,25.6,34.1,25.9z"/>
		<path class="st0" d="M36.2,27.1l-0.1,0.2c-0.2,0-0.3-0.1-0.4-0.3c-0.1,0.2-0.3,0.3-0.6,0.3c-0.4,0-0.6-0.2-0.6-0.6
			c0-0.4,0.3-0.6,0.8-0.6h0.3V26c0-0.3-0.1-0.4-0.4-0.4c-0.1,0-0.3,0-0.5,0.1l-0.1-0.2c0.2-0.1,0.4-0.1,0.7-0.1
			c0.5,0,0.7,0.2,0.7,0.6v0.9C36,27,36.1,27.1,36.2,27.1z M35.7,26.8v-0.4h-0.2c-0.3,0-0.5,0.1-0.5,0.4c0,0.2,0.1,0.3,0.3,0.3
			C35.4,27.1,35.6,27,35.7,26.8z"/>
		<path class="st0" d="M38.2,26.3c0,0.6-0.3,1-0.7,1c-0.2,0-0.4-0.1-0.5-0.3l0,0.2h-0.3v-2.7l0.3,0v1.1c0.1-0.2,0.3-0.3,0.5-0.3
			C38,25.3,38.2,25.7,38.2,26.3z M37.9,26.3c0-0.5-0.2-0.7-0.4-0.7c-0.2,0-0.3,0.1-0.4,0.3v0.9c0.1,0.2,0.2,0.3,0.4,0.3
			C37.7,27.1,37.9,26.9,37.9,26.3z"/>
		<path class="st0" d="M38.8,26.9v-2.3l0.3,0v2.4c0,0.1,0,0.2,0.1,0.2c0,0,0.1,0,0.1,0l0.1,0.2c-0.1,0-0.2,0.1-0.3,0.1
			C38.9,27.4,38.8,27.2,38.8,26.9z"/>
		<path class="st0" d="M41.2,26.5H40c0,0.4,0.2,0.6,0.5,0.6c0.2,0,0.3-0.1,0.5-0.2l0.1,0.2c-0.2,0.1-0.4,0.2-0.7,0.2
			c-0.5,0-0.8-0.4-0.8-1c0-0.6,0.3-1,0.8-1c0.5,0,0.8,0.4,0.8,1C41.3,26.4,41.2,26.4,41.2,26.5z M40.9,26.2c0-0.4-0.1-0.6-0.4-0.6
			c-0.3,0-0.4,0.2-0.4,0.6L40.9,26.2L40.9,26.2z"/>
		<path class="st0" d="M42.9,25.6l-0.1,0.2c-0.2-0.1-0.3-0.2-0.5-0.2c-0.2,0-0.3,0.1-0.3,0.3c0,0.2,0.1,0.2,0.4,0.3
			c0.4,0.1,0.6,0.3,0.6,0.6c0,0.4-0.4,0.6-0.7,0.6c-0.3,0-0.5-0.1-0.7-0.3l0.2-0.2c0.2,0.1,0.3,0.2,0.5,0.2c0.2,0,0.4-0.1,0.4-0.3
			c0-0.2-0.1-0.3-0.5-0.4c-0.4-0.1-0.6-0.3-0.6-0.6c0-0.3,0.3-0.5,0.7-0.5C42.6,25.3,42.8,25.4,42.9,25.6z"/>
		<path class="st0" d="M46,26.3c0,0.6-0.3,1-0.7,1c-0.2,0-0.4-0.1-0.5-0.2V28l-0.3,0v-2.7h0.3l0,0.3c0.1-0.2,0.3-0.3,0.6-0.3
			C45.8,25.3,46,25.7,46,26.3z M45.6,26.3c0-0.5-0.1-0.7-0.4-0.7c-0.2,0-0.4,0.1-0.5,0.3v0.9c0.1,0.1,0.2,0.2,0.4,0.2
			C45.4,27.1,45.6,26.8,45.6,26.3z"/>
		<path class="st0" d="M47.9,27.1l-0.1,0.2c-0.2,0-0.3-0.1-0.4-0.3c-0.1,0.2-0.3,0.3-0.6,0.3c-0.4,0-0.6-0.2-0.6-0.6
			c0-0.4,0.3-0.6,0.8-0.6h0.3V26c0-0.3-0.1-0.4-0.4-0.4c-0.1,0-0.3,0-0.5,0.1l-0.1-0.2c0.2-0.1,0.4-0.1,0.7-0.1
			c0.5,0,0.7,0.2,0.7,0.6v0.9C47.8,27,47.8,27.1,47.9,27.1z M47.4,26.8v-0.4h-0.2c-0.3,0-0.5,0.1-0.5,0.4c0,0.2,0.1,0.3,0.3,0.3
			C47.2,27.1,47.3,27,47.4,26.8z"/>
		<path class="st0" d="M49.4,25.4l-0.1,0.3c-0.1,0-0.1,0-0.2,0c-0.2,0-0.4,0.2-0.5,0.5v1.1h-0.3v-1.9h0.3l0,0.4
			c0.1-0.3,0.3-0.4,0.5-0.4C49.3,25.3,49.4,25.3,49.4,25.4z"/>
		<path class="st0" d="M51.1,27.1L51,27.4c-0.2,0-0.3-0.1-0.4-0.3c-0.1,0.2-0.3,0.3-0.6,0.3c-0.4,0-0.6-0.2-0.6-0.6
			c0-0.4,0.3-0.6,0.8-0.6h0.3V26c0-0.3-0.1-0.4-0.4-0.4c-0.1,0-0.3,0-0.5,0.1l-0.1-0.2c0.2-0.1,0.4-0.1,0.7-0.1
			c0.5,0,0.7,0.2,0.7,0.6v0.9C51,27,51,27.1,51.1,27.1z M50.6,26.8v-0.4h-0.2c-0.3,0-0.5,0.1-0.5,0.4c0,0.2,0.1,0.3,0.3,0.3
			C50.4,27.1,50.5,27,50.6,26.8z"/>
		<path class="st0" d="M54,27.1l-0.1,0.2c-0.2,0-0.3-0.1-0.4-0.3c-0.1,0.2-0.3,0.3-0.6,0.3c-0.4,0-0.6-0.2-0.6-0.6
			c0-0.4,0.3-0.6,0.8-0.6h0.3V26c0-0.3-0.1-0.4-0.4-0.4c-0.1,0-0.3,0-0.5,0.1l-0.1-0.2c0.2-0.1,0.4-0.1,0.7-0.1
			c0.5,0,0.7,0.2,0.7,0.6v0.9C53.8,27,53.9,27.1,54,27.1z M53.5,26.8v-0.4h-0.2c-0.3,0-0.5,0.1-0.5,0.4c0,0.2,0.1,0.3,0.3,0.3
			C53.3,27.1,53.4,27,53.5,26.8z"/>
		<path class="st0" d="M54.5,26.9v-2.3l0.3,0v2.4c0,0.1,0,0.2,0.1,0.2c0,0,0.1,0,0.1,0l0.1,0.2c-0.1,0-0.2,0.1-0.3,0.1
			C54.6,27.4,54.5,27.2,54.5,26.9z"/>
		<path class="st0" d="M55.9,24.7c0,0.1-0.1,0.2-0.2,0.2c-0.1,0-0.2-0.1-0.2-0.2c0-0.1,0.1-0.2,0.2-0.2
			C55.8,24.5,55.9,24.6,55.9,24.7z M55.9,27.3h-0.3v-1.9h0.3V27.3z"/>
		<path class="st0" d="M58.9,25.9v1.4h-0.3V26c0-0.3-0.1-0.4-0.3-0.4c-0.2,0-0.3,0.1-0.4,0.3v1.4h-0.3V26c0-0.3-0.1-0.4-0.3-0.4
			c-0.2,0-0.3,0.1-0.4,0.3v1.4h-0.3v-1.9h0.3l0,0.3c0.1-0.2,0.3-0.3,0.5-0.3c0.2,0,0.4,0.1,0.5,0.3c0.1-0.2,0.3-0.3,0.6-0.3
			C58.7,25.3,58.9,25.6,58.9,25.9z"/>
		<path class="st0" d="M61,26.5h-1.2c0,0.4,0.2,0.6,0.5,0.6c0.2,0,0.3-0.1,0.5-0.2l0.1,0.2c-0.2,0.1-0.4,0.2-0.7,0.2
			c-0.5,0-0.8-0.4-0.8-1c0-0.6,0.3-1,0.8-1c0.5,0,0.8,0.4,0.8,1C61,26.4,61,26.4,61,26.5z M60.7,26.2c0-0.4-0.1-0.6-0.4-0.6
			c-0.3,0-0.4,0.2-0.4,0.6L60.7,26.2L60.7,26.2z"/>
		<path class="st0" d="M63,25.9v1.4h-0.3V26c0-0.3-0.1-0.4-0.3-0.4c-0.2,0-0.4,0.1-0.5,0.3v1.4h-0.3v-1.9h0.3l0,0.3
			c0.1-0.2,0.3-0.3,0.6-0.3C62.8,25.3,63,25.6,63,25.9z"/>
		<path class="st0" d="M64.6,27.2c-0.1,0.1-0.3,0.1-0.4,0.1c-0.3,0-0.5-0.2-0.5-0.5v-1.2h-0.3v-0.3h0.3v-0.4l0.3,0v0.5h0.4l0,0.3H64
			v1.1c0,0.2,0.1,0.3,0.2,0.3c0.1,0,0.2,0,0.3-0.1L64.6,27.2z"/>
		<path class="st0" d="M66.4,26.3c0,0.6-0.3,1-0.8,1c-0.5,0-0.8-0.4-0.8-1c0-0.6,0.3-1,0.8-1S66.4,25.7,66.4,26.3z M65.1,26.3
			c0,0.5,0.2,0.7,0.5,0.7c0.3,0,0.5-0.2,0.5-0.7c0-0.5-0.2-0.7-0.5-0.7C65.3,25.6,65.1,25.8,65.1,26.3z"/>
		<path class="st0" d="M68.1,25.6L68,25.8c-0.2-0.1-0.3-0.2-0.5-0.2c-0.2,0-0.3,0.1-0.3,0.3c0,0.2,0.1,0.2,0.4,0.3
			c0.4,0.1,0.6,0.3,0.6,0.6c0,0.4-0.4,0.6-0.7,0.6c-0.3,0-0.5-0.1-0.7-0.3l0.2-0.2c0.2,0.1,0.3,0.2,0.5,0.2c0.2,0,0.4-0.1,0.4-0.3
			c0-0.2-0.1-0.3-0.5-0.4c-0.4-0.1-0.6-0.3-0.6-0.6c0-0.3,0.3-0.5,0.7-0.5C67.8,25.3,67.9,25.4,68.1,25.6z"/>
	</g>
	<g>
		<g>
			<path class="st0" d="M44.7,10.2h4.2c1.3,0,2.3,0.1,3,0.3c0.7,0.2,1.3,0.6,1.8,1.2c0.5,0.6,0.7,1.4,0.7,2.4c0,0.9-0.2,1.7-0.6,2.3
				c-0.4,0.6-0.9,1-1.6,1.3c-0.7,0.3-1.7,0.4-3.1,0.4h-1.1v4.6h-3.2V10.2z M47.9,12.2v3.7h1c0.9,0,1.4-0.2,1.7-0.5
				c0.3-0.3,0.4-0.8,0.4-1.4c0-0.5-0.1-0.9-0.3-1.1s-0.4-0.5-0.7-0.6c-0.3-0.1-0.6-0.1-1.1-0.1H47.9z"/>
			<path class="st0" d="M57.8,12.7h2.7l3.5,10h-2.7l-0.6-2.1h-3.4l-0.6,2.1h-2.5L57.8,12.7z M60.2,18.9l-1.2-4.1l-1.2,4.1H60.2z"/>
			<path class="st0" d="M70.4,19.1l2.5,0.1c-0.1,1.1-0.5,2-1.3,2.6c-0.8,0.7-1.7,1-3,1c-1.5,0-2.6-0.5-3.4-1.4
				c-0.8-0.9-1.2-2.2-1.2-3.8c0-1.6,0.4-2.9,1.2-3.8c0.8-0.9,1.9-1.4,3.5-1.4c2.5,0,3.9,1.3,4.2,3.9l-2.5,0.1
				c-0.1-1.5-0.6-2.2-1.7-2.2c-0.6,0-1,0.2-1.3,0.7c-0.3,0.5-0.5,1.4-0.5,2.8c0,1.2,0.2,2.1,0.5,2.5c0.3,0.5,0.8,0.7,1.4,0.7
				C69.7,21.1,70.3,20.4,70.4,19.1z"/>
		</g>
		<g>
			<polygon class="st0" points="18.4,22.8 20.8,22.8 20.8,15.5 			"/>
			<polygon class="st0" points="14.5,22.8 16.9,22.8 14.5,15.5 			"/>
			<polygon class="st0" points="-0.1,5.7 -0.1,22.8 7.3,22.8 7.3,10.1 10.3,10.1 10.3,22.8 12.6,22.8 12.6,13.8 16.1,13.8 
				17.8,19.2 19.6,13.8 23.1,13.8 23.1,22.8 25,22.8 25,13.8 30.9,13.8 30.9,15.5 27,15.5 27,17.4 30.1,17.4 30.1,19.1 27,19.1 
				27,21.1 30.9,21.1 30.9,22.8 34.3,18 31.3,13.8 34.3,13.8 36.1,16.6 37.9,13.8 40.4,13.8 37.3,18 40.7,22.8 42.8,22.8 42.8,5.7 
							"/>
			<polygon class="st0" points="33.3,22.8 37.8,22.8 35.6,19.6 			"/>
		</g>
	</g>
	<path class="st0" d="M94.2,0l-22,5.9L78,27.4l22-5.9L94.2,0z M93.6,19l-2.9-3l-6.9,6.9l-5.4-5.4l7-7l-2.9-3h11.2V19z"/>
</g>
</svg>
